HIERARCHY
ROOT SpineBase
{
  OFFSET 0.000000 0.000000 0.000000
  CHANNELS 6 Xposition Yposition Zposition Zrotation Xrotation Yrotation
  JOINT SpineMid
  {
    OFFSET -0.000000 33.070467 0.000000
    CHANNELS 3 Zrotation Xrotation Yrotation
    JOINT SpineShoulder
    {
      OFFSET -0.117487 24.612212 -0.769052
      CHANNELS 3 Zrotation Xrotation Yrotation
      JOINT Neck
      {
        OFFSET -0.051549 8.159702 -0.595688
        CHANNELS 3 Zrotation Xrotation Yrotation
        JOINT Head
        {
          OFFSET -3.613392 9.524311 6.116065
          CHANNELS 3 Zrotation Xrotation Yrotation
          End Site
          {
            OFFSET 0 0 0
          }
        }
      }
      JOINT ShoulderLeft
      {
        OFFSET -15.201341 -8.220817 -7.088573
        CHANNELS 3 Zrotation Xrotation Yrotation
        JOINT ElbowLeft
        {
          OFFSET -4.216627 -26.339100 0.749048
          CHANNELS 3 Zrotation Xrotation Yrotation
          JOINT WristLeft
          {
            OFFSET -3.529111 -25.732109 4.977108
            CHANNELS 3 Zrotation Xrotation Yrotation
            JOINT HandLeft
            {
              OFFSET 0.238087 -7.656963 0.950840
              CHANNELS 3 Zrotation Xrotation Yrotation
              JOINT HandTipLeft
              {
                OFFSET -0.051479 -5.446417 0.545282
                CHANNELS 3 Zrotation Xrotation Yrotation
                End Site
                {
                  OFFSET 0 0 0
                }
              }
              JOINT ThumbLeft
              {
                OFFSET 3.666375 -1.855345 -1.897169
                CHANNELS 3 Zrotation Xrotation Yrotation
                End Site
                {
                  OFFSET 0 0 0
                }
              }
            }
          }
        }
      }
      JOINT ShoulderRight
      {
        OFFSET 13.992230 -6.099554 -5.197237
        CHANNELS 3 Zrotation Xrotation Yrotation
        JOINT ElbowRight
        {
          OFFSET 7.804519 -24.011245 7.087491
          CHANNELS 3 Zrotation Xrotation Yrotation
          JOINT WristRight
          {
            OFFSET 3.470665 -24.059845 9.872364
            CHANNELS 3 Zrotation Xrotation Yrotation
            JOINT HandRight
            {
              OFFSET 0.912186 -11.893120 4.652336
              CHANNELS 3 Zrotation Xrotation Yrotation
              JOINT HandTipRight
              {
                OFFSET -0.574122 -4.094231 -1.461209
                CHANNELS 3 Zrotation Xrotation Yrotation
                End Site
                {
                  OFFSET 0 0 0
                }
              }
              JOINT ThumbRight
              {
                OFFSET 1.214316 -3.090215 -3.538784
                CHANNELS 3 Zrotation Xrotation Yrotation
                End Site
                {
                  OFFSET 0 0 0
                }
              }
            }
          }
        }
      }
    }
  }
  JOINT HipLeft
  {
    OFFSET -6.353321 1.088001 -3.785605
    CHANNELS 3 Zrotation Xrotation Yrotation
    JOINT KneeLeft
    {
      OFFSET 0.467642 -34.649581 -0.801842
      CHANNELS 3 Zrotation Xrotation Yrotation
      JOINT AnkleLeft
      {
        OFFSET -3.431533 -35.095374 -2.412696
        CHANNELS 3 Zrotation Xrotation Yrotation
        JOINT FootLeft
        {
          OFFSET 5.244688 -5.952031 -5.796956
          CHANNELS 3 Zrotation Xrotation Yrotation
          End Site
          {
            OFFSET 0 0 0
          }
        }
      }
    }
  }
  JOINT HipRight
  {
    OFFSET 6.032804 1.161593 -2.754510
    CHANNELS 3 Zrotation Xrotation Yrotation
    JOINT KneeRight
    {
      OFFSET 7.116584 -35.144406 0.254273
      CHANNELS 3 Zrotation Xrotation Yrotation
      JOINT AnkleRight
      {
        OFFSET 2.046932 -32.745866 -0.689490
        CHANNELS 3 Zrotation Xrotation Yrotation
        JOINT FootRight
        {
          OFFSET 0.714861 -3.395075 -13.148749
          CHANNELS 3 Zrotation Xrotation Yrotation
          End Site
          {
            OFFSET 0 0 0
          }
        }
      }
    }
  }
}
MOTION
Frames: 16
Frame Time: 0.033333
14.899816 74.868764 312.125387 0.000000 0.000000 -4.758668 -0.000000 0.000000 4.758668 -0.000000 0.000000 0.000000 -0.000000 0.000000 0.000000 0.000000 0.000000 0.000000 -0.000000 0.000000 0.000000 -0.000000 0.000000 0.000000 -0.000000 0.000000 0.000000 -0.000000 0.000000 0.000000 0.000000 0.000000 0.000000 0.000000 0.000000 0.000000 -0.000000 0.000000 0.000000 -0.000000 0.000000 0.000000 -0.000000 0.000000 0.000000 -0.000000 0.000000 0.000000 0.000000 0.000000 0.000000 0.000000 0.000000 0.000000 -0.000000 0.000000 4.758668 -0.000000 0.000000 0.000000 -0.000000 0.000000 0.000000 0.000000 0.000000 0.000000 -0.000000 0.000000 4.758668 -0.000000 0.000000 0.000000 -0.000000 0.000000 0.000000 0.000000 0.000000 0.000000
14.898507 74.874289 312.085587 0.006980 0.004667 -4.719599 -0.006572 -0.005226 4.719598 -0.000000 0.000000 0.000000 -0.432946 0.512395 0.473668 0.000000 0.000000 0.000000 -0.000000 0.000000 0.000000 -0.000000 0.000000 0.000000 0.785023 0.831909 0.117735 -2.211619 -2.194843 -0.295908 0.000000 0.000000 0.000000 0.000000 0.000000 0.000000 -0.000000 0.000000 0.000000 -0.000000 0.000000 0.000000 -1.274200 0.691508 -0.439142 5.659089 -7.029125 0.091606 0.000000 0.000000 0.000000 0.000000 0.000000 0.000000 -0.006572 -0.005226 4.719598 -0.000000 0.000000 0.000000 -0.000000 0.000000 0.000000 0.000000 0.000000 0.000000 -0.006572 -0.005226 4.719598 -0.000000 0.000000 0.000000 -0.000000 0.000000 0.000000 0.000000 0.000000 0.000000
14.900114 74.878756 312.044000 0.012804 0.011687 -4.693334 -0.011805 -0.012696 4.693331 -0.000000 0.000000 0.000000 -0.960944 0.919789 0.971823 0.000000 0.000000 0.000000 -0.000000 0.000000 0.000000 -0.000000 0.000000 0.000000 1.416942 1.622132 0.206630 -3.867546 -4.078189 -0.587493 0.000000 0.000000 0.000000 0.000000 0.000000 0.000000 -0.000000 0.000000 0.000000 -1.035699 0.259439 -0.386077 -1.459594 1.103859 -0.464158 10.578366 -13.020214 0.762358 0.000000 0.000000 0.000000 0.000000 0.000000 0.000000 -0.902010 0.007869 4.715048 1.940395 -0.408287 -0.058255 -2.037717 0.401639 1.093153 0.000000 0.000000 0.000000 -0.011805 -0.012696 4.693331 -0.000000 0.000000 0.000000 -0.000000 0.000000 0.000000 0.000000 0.000000 0.000000
14.904639 74.882166 312.000624 0.017470 0.021063 -4.679837 -0.015693 -0.022418 4.679830 -0.000000 0.000000 0.000000 -1.583193 1.223153 1.495186 0.000000 0.000000 0.000000 -0.000000 0.000000 0.000000 -0.000000 0.000000 0.000000 1.899318 2.378659 0.270975 -5.082194 -5.757057 -0.855540 0.000000 0.000000 0.000000 0.000000 0.000000 0.000000 -0.000000 0.000000 0.000000 -1.473017 0.373026 -0.547587 -2.161573 1.638498 -0.674008 14.872245 -18.084284 1.797395 0.000000 0.000000 0.000000 0.000000 0.000000 0.000000 -1.249852 -0.001474 4.709644 2.700838 -0.558541 -0.078750 -2.882169 0.484362 1.508426 0.000000 0.000000 0.000000 -0.015693 -0.022418 4.679830 -0.856486 -0.429890 -0.012058 0.856420 0.430022 0.005631 0.000000 0.000000 0.000000
14.912081 74.884519 311.955462 0.020975 0.032794 -4.679082 -0.018230 -0.034396 4.679070 -0.000000 0.000000 0.000000 -2.299222 1.422699 2.044029 0.000000 0.000000 0.000000 0.160428 0.904848 -0.141628 -0.158211 -0.905238 0.139111 2.231903 3.109505 0.314185 -5.919035 -7.305549 -1.088365 0.000000 0.000000 0.000000 0.000000 0.000000 0.000000 -0.000000 0.000000 0.000000 -1.856709 0.475202 -0.688444 -2.812101 2.145238 -0.859872 18.611074 -22.376911 3.045895 0.000000 0.000000 0.000000 0.000000 0.000000 0.000000 -1.529080 -0.020040 4.715036 3.320079 -0.672184 -0.094899 -3.608670 0.490061 1.834205 0.000000 0.000000 0.000000 -0.018230 -0.034396 4.679070 -1.025301 -0.524657 -0.015912 1.025198 0.524858 0.006522 0.000000 0.000000 0.000000
14.922440 74.885814 311.908511 0.023319 0.046883 -4.691056 -0.019407 -0.048633 4.691038 -0.000000 0.000000 0.000000 -3.108807 1.517913 2.618149 0.000000 0.000000 0.000000 0.230373 1.126901 -0.176231 -0.226950 -1.127595 0.171732 2.410203 3.822938 0.338991 -6.408586 -8.780155 -1.276460 0.000000 0.000000 0.000000 0.000000 0.000000 0.000000 -0.350464 0.799364 0.159309 -1.836956 -0.228289 -0.993748 -3.383589 2.609856 -1.014776 21.828782 -26.052802 4.401300 0.000000 0.000000 0.000000 0.000000 0.000000 0.000000 -1.739734 -0.048008 4.731181 3.797384 -0.748863 -0.107495 -4.216595 0.419745 2.069238 0.000000 0.000000 0.000000 -0.019407 -0.048633 4.691038 -1.135675 -0.595131 -0.019201 1.135537 0.595395 0.007402 0.000000 0.000000 0.000000
14.929681 74.886777 311.848546 0.020621 0.069136 -4.745386 -0.014831 -0.070605 4.745364 -0.000000 0.000000 0.000000 -3.870443 1.599296 3.158577 0.000000 0.000000 0.000000 0.361948 1.435988 -0.224335 -0.356436 -1.437366 0.215328 2.168505 4.519504 0.325743 -6.301549 -11.917425 -1.409105 0.000000 0.000000 0.000000 0.000000 0.000000 0.000000 -0.474223 0.926874 0.165749 -2.097183 -0.223556 -1.143895 -3.978027 2.914033 -1.195553 25.999751 -30.079948 6.172412 0.000000 0.000000 0.000000 0.000000 0.000000 0.000000 -2.006614 -0.097486 4.790305 4.433504 -0.799206 -0.129541 -5.028077 0.033636 2.157535 0.000000 0.000000 0.000000 -0.014831 -0.070605 4.745364 -1.170554 -0.559159 -0.016029 1.170453 0.559370 0.004604 0.000000 0.000000 0.000000
14.946715 74.888179 311.784036 0.026592 0.099655 -4.802582 -0.018156 -0.101532 4.802542 -0.000000 0.000000 0.000000 -5.195883 1.295013 3.926507 0.000000 0.000000 0.000000 0.445283 1.622868 -0.253725 -0.438269 -1.624775 0.241204 1.999577 5.972619 0.331859 -6.321308 -16.508695 -1.680022 0.000000 0.000000 0.000000 0.000000 0.000000 0.000000 -0.780811 1.094296 0.133346 -1.931775 -0.426858 -1.177600 -4.582201 4.293294 -1.217381 29.268036 -33.852921 8.131494 0.000000 0.000000 0.000000 0.000000 0.000000 0.000000 -2.025480 -0.178883 4.845311 4.525577 -0.753484 -0.136492 -5.470944 -0.412744 2.135121 0.000000 0.000000 0.000000 -0.018156 -0.101532 4.802542 -1.168337 -0.586484 -0.018053 0.963378 0.610374 0.806116 0.000000 0.000000 0.000000
14.968233 74.888687 311.737958 0.025196 0.117077 -4.867222 -0.015172 -0.118792 4.867180 -0.000000 0.000000 0.000000 -6.404645 1.070018 4.651201 0.000000 0.000000 0.000000 0.523340 1.736297 -0.271347 -0.813762 -2.572812 0.300111 2.442110 6.398378 0.246697 -5.678003 -15.709588 -1.426328 0.000000 0.000000 0.000000 0.000000 0.000000 0.000000 -1.008060 1.086243 0.065444 -1.773848 -0.362075 -1.125218 -4.714477 4.495105 -1.239377 29.462996 -36.235633 9.334065 0.000000 0.000000 0.000000 0.000000 0.000000 0.000000 -1.834414 -0.260747 4.903566 4.115277 -0.608590 -0.129503 -5.065956 -0.675492 1.757552 0.000000 0.000000 0.000000 -0.015172 -0.118792 4.867180 -1.076031 -0.638227 -0.023248 0.873547 0.672257 0.803437 0.000000 0.000000 0.000000
14.991144 74.883643 311.711660 0.021220 0.121839 -4.936467 -0.010657 -0.123213 4.936433 -0.000000 0.000000 0.000000 -7.658359 0.597734 5.305188 0.000000 0.000000 0.000000 0.582519 1.808682 -0.282561 -0.924549 -2.795439 0.316173 2.061617 6.494183 0.203526 -4.731828 -14.267114 -1.184263 0.000000 0.000000 0.000000 0.000000 0.000000 0.000000 -1.208991 0.941902 -0.041019 -1.665652 -0.110931 -1.032284 -4.144105 4.332610 -1.058672 28.789603 -34.391102 8.219171 0.000000 0.000000 0.000000 0.000000 0.000000 0.000000 -1.759491 -0.295099 4.970441 3.957516 -0.564361 -0.124789 -5.031305 -0.596036 1.889730 0.000000 0.000000 0.000000 -0.010657 -0.123213 4.936433 -0.926289 -0.675220 -0.028180 0.926021 0.675587 0.017262 0.000000 0.000000 0.000000
15.016557 74.871935 311.695679 0.017252 0.120764 -4.955773 -0.006755 -0.121803 4.955748 -0.000000 0.000000 0.000000 -8.503007 1.175119 6.130270 0.000000 0.000000 0.000000 0.635774 1.819606 -0.283720 -1.037204 -2.833418 0.305106 2.068011 6.733707 0.210559 -3.464801 -12.035791 -0.852946 0.000000 0.000000 0.000000 0.000000 0.000000 0.000000 -1.216376 0.768868 -0.101532 -1.864492 0.227204 -1.025151 -2.450581 2.952523 -0.614607 26.779343 -32.965737 6.767834 0.000000 0.000000 0.000000 0.000000 0.000000 0.000000 -1.720308 -0.312418 4.988586 3.882809 -0.570939 -0.118948 -5.294437 -0.429133 2.325010 0.000000 0.000000 0.000000 -0.006755 -0.121803 4.955748 -0.740500 -0.686239 -0.031757 0.740173 0.686592 0.022887 0.000000 0.000000 0.000000
15.044017 74.867605 311.676064 0.018351 0.133984 -4.956564 -0.006706 -0.135068 4.956534 -0.000000 0.000000 0.000000 -9.437004 1.744102 7.022089 0.000000 0.000000 0.000000 0.682685 1.818873 -0.283027 -1.138228 -2.849419 0.292469 2.501391 6.842503 0.240515 -4.787676 -10.468481 -1.143096 0.000000 0.000000 0.000000 0.000000 0.000000 0.000000 -0.877451 0.558953 -0.073332 -2.687413 0.674468 -1.210354 0.168294 1.926569 0.272329 21.955794 -28.707150 4.041334 0.000000 0.000000 0.000000 0.000000 0.000000 0.000000 -1.553684 -0.356565 4.984839 3.613652 -0.595629 -0.101794 -5.734887 0.105974 3.305461 0.000000 0.000000 0.000000 -0.006706 -0.135068 4.956534 -0.601351 -0.614824 -0.029010 0.601075 0.615095 0.022557 0.000000 0.000000 0.000000
15.089320 74.860331 311.651329 0.031073 0.169912 -4.949175 -0.016299 -0.171959 4.949104 -0.000000 0.000000 0.000000 -10.621268 2.524271 8.191892 0.000000 0.000000 0.000000 0.721798 1.816466 -0.282149 -1.235142 -2.861495 0.278768 2.879471 6.868684 0.266622 -2.329198 -7.015282 -0.570231 0.000000 0.000000 0.000000 0.000000 0.000000 0.000000 -0.000000 0.000000 0.000000 -3.706372 1.460979 -1.275894 1.553871 -0.401681 0.563344 18.912364 -24.418780 2.196997 0.000000 0.000000 0.000000 0.000000 0.000000 0.000000 -1.212318 -0.448705 4.968428 3.030783 -0.610783 -0.069137 -6.474337 0.836532 4.886714 0.000000 0.000000 0.000000 -0.016299 -0.171959 4.949104 -0.000000 0.000000 0.000000 -0.000000 0.000000 0.000000 0.000000 0.000000 0.000000
15.141094 74.844426 311.632637 0.045253 0.207861 -4.959806 -0.027113 -0.210995 4.959674 -0.000000 0.000000 0.000000 -11.648684 3.113411 9.181052 0.000000 0.000000 0.000000 0.792657 1.903101 -0.295785 -1.361895 -2.955601 0.275687 4.555424 7.768889 0.362294 -5.843054 -11.472662 -1.347603 0.000000 0.000000 0.000000 0.000000 0.000000 0.000000 -0.000000 0.000000 0.000000 -3.830495 1.696726 -1.284770 2.634168 -2.276151 0.816639 15.898928 -21.861376 1.394612 0.000000 0.000000 0.000000 0.000000 0.000000 0.000000 -1.043467 -0.569743 4.973263 2.724177 -0.575339 -0.051586 -6.808734 1.660184 6.066781 0.000000 0.000000 0.000000 -0.027113 -0.210995 4.959674 -0.000000 0.000000 0.000000 -0.000000 0.000000 0.000000 0.000000 0.000000 0.000000
15.197899 74.824513 311.637771 0.064814 0.221708 -4.986556 -0.045298 -0.226502 4.986342 -0.000000 0.000000 0.000000 -12.474580 3.555459 9.970429 0.000000 0.000000 0.000000 0.859445 1.982413 -0.308345 -1.375659 -2.906154 0.279429 2.965146 6.113535 0.288273 -7.890270 -15.572533 -1.971122 0.000000 0.000000 0.000000 0.000000 0.000000 0.000000 -0.000000 0.000000 0.000000 -4.045674 1.955682 -1.325493 3.182311 -3.863575 0.891534 14.202159 -18.003513 0.525822 0.000000 0.000000 0.000000 0.000000 0.000000 0.000000 -1.120569 -0.648522 4.999358 2.860916 -0.549599 -0.055985 -7.344870 2.190627 7.022328 0.000000 0.000000 0.000000 -0.045298 -0.226502 4.986342 -0.000000 0.000000 0.000000 -0.000000 0.000000 0.000000 0.000000 0.000000 0.000000
15.242656 74.821721 311.657275 0.083089 0.208118 -4.897028 -0.065020 -0.214451 4.896756 -0.000000 0.000000 0.000000 -13.071707 3.508668 10.383577 0.000000 0.000000 0.000000 1.043907 2.072568 -0.321662 -1.615261 -3.039529 0.276088 1.765800 4.720270 0.182548 -11.808028 -17.808479 -3.184230 0.000000 0.000000 0.000000 0.000000 0.000000 0.000000 1.673847 -0.067238 0.470918 -5.783815 2.122155 -1.810782 3.172731 -4.012192 0.870113 13.438976 -18.017467 0.785846 0.000000 0.000000 0.000000 0.000000 0.000000 0.000000 -1.423479 -0.617646 4.915158 3.395646 -0.626607 -0.074864 -7.971419 2.479940 7.676710 0.000000 0.000000 0.000000 -0.065020 -0.214451 4.896756 -0.000000 0.000000 0.000000 -0.245108 0.029692 0.955044 0.000000 0.000000 0.000000
